<?xml version="1.0" standalone="no"?>
<!DOCTYPE svg PUBLIC "-//W3C//DTD SVG 20010904//EN"
 "http://www.w3.org/TR/2001/REC-SVG-20010904/DTD/svg10.dtd">
<svg version="1.0" xmlns="http://www.w3.org/2000/svg"
 width="1280.000000pt" height="1280.000000pt" viewBox="0 0 1280.000000 1280.000000"
 preserveAspectRatio="xMidYMid meet">

<g transform="translate(0.000000,1280.000000) scale(0.100000,-0.100000)"
fill="#000000" stroke="none">
<path d="M0 6400 l0 -6400 6400 0 6400 0 0 6400 0 6400 -6400 0 -6400 0 0
-6400z m10315 5920 c139 -10 206 -31 307 -97 88 -58 167 -146 215 -241 l38
-77 3 -4222 c1 -2323 0 -4223 -3 -4223 -2 0 -26 13 -52 29 -65 40 -136 67
-226 85 -68 14 -492 16 -4197 16 -3705 0 -4129 -2 -4197 -16 -90 -18 -161 -45
-226 -85 -26 -16 -50 -29 -52 -29 -3 0 -4 1900 -3 4223 l3 4222 40 80 c70 140
218 267 369 315 21 7 82 16 135 20 140 10 7703 11 7846 0z m-7082 -10050 c120
-46 216 -160 233 -278 l7 -43 -79 3 -79 3 -6 40 c-16 118 -106 179 -261 178
-123 -2 -195 -46 -219 -136 -14 -51 -6 -98 21 -137 26 -36 133 -91 248 -126
201 -61 321 -146 355 -253 54 -171 -23 -322 -198 -387 -71 -26 -92 -29 -190
-28 -111 1 -154 10 -250 55 -95 45 -185 169 -185 257 l0 42 70 0 c76 0 74 1
85 -63 9 -56 72 -121 143 -148 48 -18 72 -20 158 -17 83 4 108 9 138 27 61 38
87 80 88 148 3 113 -40 149 -267 227 -77 26 -165 62 -195 79 -123 70 -180 152
-180 263 0 153 91 259 267 310 71 20 223 12 296 -16z m1080 15 c32 -8 75 -24
96 -35 84 -42 157 -142 187 -255 24 -87 25 -86 -63 -83 l-76 3 -17 61 c-33
121 -93 179 -203 194 -165 24 -288 -55 -344 -220 -27 -82 -27 -420 1 -500 40
-115 120 -200 203 -216 19 -4 70 -4 113 -2 133 8 198 65 234 204 l12 49 78 3
79 3 -7 -40 c-27 -170 -145 -299 -308 -336 -274 -62 -494 77 -562 356 -21 87
-22 349 -1 451 48 233 218 375 450 377 39 1 97 -6 128 -14z m1152 -197 c42
-112 85 -223 95 -248 17 -45 100 -260 211 -549 32 -85 59 -158 59 -163 0 -4
-35 -8 -79 -8 l-78 0 -22 63 c-11 34 -36 103 -54 152 l-34 90 -238 3 c-131 1
-243 -2 -247 -6 -5 -5 -33 -74 -62 -153 l-52 -144 -77 -3 c-53 -2 -77 1 -77 9
0 9 123 333 250 659 21 52 72 186 115 298 l78 202 67 0 67 0 78 -202z m1055
-238 c161 -242 296 -440 299 -440 3 0 6 197 6 437 l0 438 75 0 75 0 0 -580 0
-580 -77 0 -77 0 -295 444 -296 445 -2 -445 -3 -444 -77 -3 -78 -3 0 586 0
585 78 0 78 0 294 -440z m1695 -30 c104 -258 191 -467 194 -464 3 3 89 213
191 467 l185 462 103 3 102 3 0 -586 0 -585 -82 0 -81 0 7 432 c4 238 9 443
12 455 4 13 2 23 -3 23 -5 0 -45 -91 -90 -202 -45 -112 -121 -297 -168 -413
-48 -115 -94 -229 -102 -253 l-15 -43 -62 3 -61 3 -91 225 c-50 124 -129 317
-174 430 -45 113 -88 219 -95 235 -10 24 -12 -57 -7 -432 l5 -463 -75 0 c-57
0 -77 4 -81 14 -8 19 -8 1136 -1 1147 3 5 49 9 103 9 l97 0 189 -470z m1865
410 l0 -60 -290 0 -290 0 0 -195 0 -195 255 0 255 0 0 -60 0 -60 -255 0 -255
0 0 -207 0 -208 202 3 c112 2 245 1 296 -3 l92 -7 0 -59 0 -59 -370 0 -370 0
-2 581 c-2 319 -1 583 1 585 2 2 168 4 368 4 l363 0 0 -60z"/>
<path d="M3075 11801 c-288 -45 -507 -245 -569 -518 -21 -96 -23 -746 -2 -833
57 -233 224 -418 446 -492 60 -21 90 -23 405 -28 187 -3 374 -2 416 2 180 17
356 118 466 268 52 70 75 117 104 210 23 73 24 84 24 460 l0 385 -28 80 c-83
236 -246 388 -487 453 -42 11 -133 15 -390 18 -184 1 -358 -1 -385 -5z m749
-284 c109 -36 204 -127 248 -236 22 -55 23 -65 23 -421 l0 -365 -32 -65 c-58
-118 -157 -198 -278 -225 -59 -14 -126 -16 -391 -13 l-319 3 -64 27 c-115 50
-193 132 -232 245 -17 51 -19 86 -19 399 0 326 1 346 21 401 51 137 162 234
299 262 25 5 191 8 370 7 271 -2 333 -5 374 -19z"/>
<path d="M3029 11266 c-2 -2 -3 -185 -1 -405 l2 -401 400 0 400 0 0 405 0 405
-398 0 c-219 0 -401 -2 -403 -4z"/>
<path d="M5180 11540 l0 -270 -135 0 -135 0 0 135 0 135 -135 0 -135 0 0 -135
0 -135 135 0 135 0 0 -135 0 -135 -135 0 -135 0 0 -540 0 -541 133 3 132 3 3
133 3 132 134 0 135 0 0 -265 0 -265 -540 0 -540 0 0 -135 0 -135 -135 0 -135
0 0 135 0 135 -267 -2 -268 -3 -3 -132 -3 -133 -132 0 -132 0 2 114 c3 169 14
156 -138 156 l-129 0 0 -135 0 -135 -135 0 -135 0 0 -135 0 -135 135 0 135 0
0 -135 0 -134 133 -3 132 -3 0 -130 0 -130 -267 -3 -268 -2 0 -135 0 -135 268
2 267 3 0 133 0 132 133 0 132 0 0 -135 0 -135 -130 0 -130 0 -2 -267 -3 -268
-132 -3 -133 -3 0 136 0 135 -135 0 -135 0 0 -135 0 -135 135 0 135 0 0 -265
0 -265 -135 0 -135 0 0 -135 0 -135 135 0 135 0 0 135 0 134 133 3 c97 2 132
6 133 16 1 6 2 66 3 132 l1 120 130 0 130 0 0 -270 0 -270 -130 0 -130 0 -1
-127 c-1 -71 -1 -131 0 -135 0 -5 -121 -8 -269 -8 l-270 0 0 -270 0 -270 135
0 135 0 0 135 0 135 265 0 265 0 0 135 0 135 135 0 135 0 0 -135 0 -135 135 0
135 0 0 -135 0 -135 270 0 270 0 0 135 0 135 270 0 270 0 0 135 0 136 133 -3
132 -3 0 -265 0 -265 -267 -3 -268 -2 0 -270 0 -270 135 0 135 0 0 -130 0
-130 -135 0 -135 0 0 -270 0 -270 268 -2 267 -3 3 -132 3 -133 -271 0 -270 0
0 -135 0 -135 269 0 270 0 0 123 c0 67 0 128 1 135 0 9 33 12 130 12 l130 0 0
270 0 270 135 0 135 0 0 -135 0 -135 135 0 135 0 0 -135 0 -135 -135 0 -135 0
0 -135 0 -135 -135 0 -135 0 0 -135 0 -135 135 0 135 0 0 135 0 135 135 0 135
0 0 -135 0 -135 270 0 270 0 0 135 0 135 135 0 135 0 0 -135 0 -135 135 0 135
0 0 135 0 135 -135 0 -135 0 0 270 0 270 135 0 135 0 0 -135 0 -135 135 0 136
0 -1 268 -1 267 133 5 133 5 0 130 0 130 133 3 132 3 0 -270 0 -270 -132 -3
-133 -3 0 -268 0 -267 -132 0 -133 0 0 -135 0 -135 130 0 129 0 3 133 3 132
268 3 267 2 0 135 0 135 270 0 270 0 0 -135 0 -135 135 0 135 0 0 -135 0 -135
135 0 135 0 0 135 0 135 135 0 135 0 0 -135 0 -135 265 0 265 0 0 135 0 135
-136 0 -136 0 4 133 3 132 268 3 267 2 0 135 0 135 -135 0 -136 0 3 133 3 132
133 3 132 3 0 399 0 400 -135 0 -135 0 0 135 0 135 135 0 135 0 0 135 0 135
-135 0 -135 0 0 135 0 135 135 0 135 0 0 135 0 135 -267 2 -268 3 0 130 0 130
132 3 132 3 3 132 3 132 133 3 132 3 0 129 0 129 -132 3 -133 3 -3 403 -2 402
-136 0 -135 0 2 -267 1 -268 -131 -3 -131 -3 0 136 0 135 -135 0 -135 0 -2
268 -3 267 -267 3 -268 2 0 -405 0 -405 -270 0 -270 0 0 135 0 135 -135 0
-135 0 0 -135 0 -134 -132 -3 -133 -3 0 -263 0 -262 -132 0 -133 0 0 -135 0
-135 -270 0 -270 0 0 -270 0 -270 -135 0 -135 0 0 135 0 135 -135 0 -135 0 0
-540 0 -540 -135 0 -135 0 0 270 0 270 -135 0 -135 0 0 135 0 135 -267 0 -268
0 3 135 3 135 265 0 264 0 0 135 0 135 135 0 135 0 0 135 0 135 135 0 135 0 0
-135 0 -135 135 0 135 0 0 400 0 400 135 0 135 0 0 -265 0 -265 135 0 135 0 0
265 0 264 133 3 132 3 3 403 2 402 130 0 129 0 3 -132 3 -133 133 -3 132 -3 0
406 0 405 135 0 135 0 0 -405 0 -405 135 0 135 0 0 540 0 540 -270 0 -270 0 0
130 c0 97 3 130 13 131 6 0 67 0 135 -1 l122 -1 0 405 0 406 -135 0 -135 0 0
135 0 135 135 0 135 0 0 405 0 405 -1075 0 -1075 0 0 -135 0 -135 -135 0 -135
0 0 135 0 135 -265 0 -265 0 0 -270z m530 -135 l0 -135 135 0 135 0 0 -540 0
-540 135 0 135 0 0 540 0 540 135 0 135 0 0 135 0 135 270 0 270 0 0 -135 0
-135 -270 0 -270 0 0 -135 0 -135 270 0 270 0 0 -135 0 -135 135 0 135 0 0
270 0 270 265 0 265 0 0 -135 0 -134 -132 -3 -133 -3 0 -265 0 -265 133 -3
132 -3 0 -269 0 -270 -135 0 -135 0 0 -400 0 -400 -265 0 -265 0 0 -135 0
-135 -270 0 -270 0 0 135 0 135 -135 0 -135 0 0 -135 0 -135 -135 0 -135 0 0
-135 0 -135 405 0 405 0 0 -135 0 -135 135 0 135 0 0 -135 0 -135 -135 0 -135
0 0 135 0 135 -405 0 -405 0 0 -135 0 -135 -135 0 -135 0 0 135 0 135 -135 0
-135 0 0 -135 0 -136 -131 3 -130 3 -2 130 -2 130 -132 3 -133 3 0 134 0 135
-135 0 -135 0 0 -270 0 -270 -405 0 -405 0 0 135 0 135 270 0 270 0 0 135 0
135 -270 0 -270 0 0 135 0 135 -135 0 -135 0 0 270 0 270 135 0 135 0 0 -135
0 -135 135 0 135 0 0 135 0 135 670 0 670 0 0 -135 0 -135 135 0 135 0 0 400
0 399 -132 3 -133 3 -3 133 -3 132 136 0 135 0 0 135 0 135 -135 0 -135 0 0
135 0 134 -131 3 -130 3 0 130 0 130 130 3 131 3 0 269 0 270 135 0 135 0 0
-135z m-2682 -2152 l3 -133 129 0 130 0 0 -135 0 -135 -132 0 -133 0 3 135 3
135 -135 0 -136 0 0 135 0 136 133 -3 132 -3 3 -132z m534 -1210 l3 -268 1073
-3 1072 -2 0 -130 0 -130 -400 0 -400 0 0 -405 0 -405 -135 0 -135 0 0 270 0
270 -135 0 -135 0 0 -135 0 -135 -135 0 -135 0 0 -135 0 -135 135 0 135 0 0
-135 0 -135 -270 0 -270 0 0 270 0 270 -135 0 -135 0 0 270 0 270 -135 0 -135
0 0 400 0 400 135 0 135 0 2 -267z m5646 130 l3 -133 134 0 135 0 0 -265 0
-265 124 0 c85 0 127 -4 132 -12 6 -9 8 -117 4 -250 0 -5 -58 -8 -130 -8
l-130 0 0 -135 0 -135 -135 0 -134 0 -3 133 -3 132 -132 3 -133 3 0 -135 0
-135 133 -3 132 -3 3 -132 3 -133 266 -2 266 -3 1 -133 1 -132 -132 0 -133 0
0 -270 0 -269 131 -3 132 -3 -1 -125 c-1 -69 -1 -128 -2 -132 0 -5 -119 -8
-265 -8 l-265 0 -2 538 -3 537 -132 3 -133 3 0 134 0 135 -135 0 -135 0 0
-135 0 -135 -135 0 -135 0 0 -135 0 -135 -135 0 -135 0 0 135 0 135 -267 2
-268 3 0 265 0 265 133 3 132 3 0 -136 0 -135 270 0 270 0 0 135 0 135 -135 0
-135 0 0 135 0 135 -135 0 -135 0 0 130 0 130 135 0 135 0 0 -130 0 -130 405
0 405 0 0 400 0 401 133 -3 132 -3 3 -132z m802 -533 l0 -130 -135 0 -135 0 0
130 0 130 135 0 135 0 0 -130z m-2682 -942 l2 -268 136 0 c120 0 135 -2 130
-16 -3 -9 -6 -191 -6 -405 l0 -389 -130 0 -130 0 0 -130 0 -130 -135 0 -135 0
0 -135 0 -135 -135 0 -135 0 0 135 0 136 -135 -2 -135 -1 0 -134 0 -134 -135
0 -135 0 0 -135 0 -135 135 0 135 0 0 -270 0 -270 -270 0 -270 0 0 135 0 135
135 0 135 0 0 135 0 135 -135 0 -136 0 3 133 3 132 133 3 132 3 0 134 0 135
-135 0 -135 0 0 -135 0 -135 -135 0 -135 0 0 135 0 136 -132 -3 -133 -3 -3
-132 -3 -133 -132 0 -132 0 2 137 c1 76 3 195 3 266 l0 127 130 0 130 0 0 270
0 270 135 0 135 0 2 -267 3 -268 268 -3 267 -2 0 135 0 135 135 0 135 0 0
-135 0 -135 135 0 135 0 0 -130 0 -130 135 0 135 0 0 130 0 129 -132 3 -133 3
-3 268 -2 267 -135 0 -135 0 0 135 0 135 135 0 135 0 0 135 0 135 135 0 135 0
0 135 0 136 133 -3 132 -3 3 -267z m2682 -403 l0 -135 -135 0 -135 0 0 128 c0
71 3 132 7 135 3 4 64 7 135 7 l128 0 0 -135z m-1070 -535 l0 -400 -130 0
c-71 0 -193 -1 -270 -1 -77 0 -201 1 -275 1 l-135 0 0 400 0 400 405 0 405 0
0 -400z m-3765 -5 l0 -130 -132 -3 -133 -3 0 136 0 136 133 -3 132 -3 0 -130z
m4835 -265 l0 -130 -135 0 -135 0 0 130 0 130 135 0 135 0 0 -130z m-532 -267
l3 -132 132 -3 c125 -3 132 -4 131 -23 -1 -11 -2 -131 -2 -267 l-2 -248 -535
0 -535 0 0 135 0 135 -135 0 -135 0 0 135 0 135 135 0 135 0 0 -135 0 -135
135 0 135 0 0 135 0 136 133 -3 132 -3 3 -132 3 -133 134 0 135 0 0 135 0 135
-135 0 -135 0 0 135 0 136 133 -3 132 -3 3 -132z"/>
<path d="M5440 10865 l0 -135 135 0 135 0 0 135 0 135 -135 0 -135 0 0 -135z"/>
<path d="M6520 10595 l0 -135 270 0 270 0 0 135 0 135 -270 0 -270 0 0 -135z"/>
<path d="M5710 10055 l0 -135 135 0 135 0 0 135 0 135 -135 0 -135 0 0 -135z"/>
<path d="M6250 9790 l0 -400 -135 0 -135 0 0 -135 0 -135 -135 0 -135 0 0
-135 0 -135 135 0 135 0 0 135 0 135 135 0 135 0 0 135 0 135 135 0 135 0 0
-135 0 -135 270 0 270 0 0 270 0 270 135 0 135 0 0 130 0 129 131 3 130 3 2
133 2 132 -132 0 -133 0 0 -135 0 -135 -135 0 -135 0 0 135 0 135 -135 0 -135
0 0 -135 0 -135 -135 0 -135 0 0 135 0 135 -135 0 -135 0 0 -400z"/>
<path d="M4100 8985 l0 -135 135 0 135 0 0 135 0 135 -135 0 -135 0 0 -135z"/>
<path d="M4640 8985 l0 -135 135 0 135 0 0 -135 0 -135 265 0 265 0 0 135 0
135 -132 0 -133 0 0 132 0 133 -267 3 -268 2 0 -135z"/>
<path d="M5710 8445 l0 -135 135 0 135 0 0 135 0 135 -135 0 -135 0 0 -135z"/>
<path d="M4100 7375 l0 -135 135 0 135 0 0 135 0 135 -135 0 -135 0 0 -135z"/>
<path d="M6790 6295 l0 -135 135 0 135 0 0 -270 0 -270 135 0 135 0 0 270 0
270 -135 0 -135 0 0 135 0 135 -135 0 -135 0 0 -135z"/>
<path d="M6250 5491 l0 -130 125 -3 c69 -2 130 -1 135 0 6 2 10 57 10 133 l0
129 -135 0 -135 0 0 -129z"/>
<path d="M8400 5755 l0 -135 135 0 135 0 0 135 0 135 -135 0 -135 0 0 -135z"/>
<path d="M9015 11803 c-238 -28 -443 -168 -540 -368 -69 -145 -70 -149 -70
-565 0 -419 3 -447 72 -579 72 -138 168 -231 303 -295 134 -63 153 -66 559
-66 336 -1 372 1 445 19 241 63 427 257 482 506 21 94 19 732 -2 828 -41 184
-167 350 -334 440 -139 75 -231 88 -610 86 -151 -1 -288 -4 -305 -6z m735
-291 c113 -45 202 -137 241 -246 17 -51 19 -85 19 -400 0 -329 -1 -348 -21
-403 -52 -139 -147 -224 -291 -258 -79 -18 -617 -21 -700 -4 -157 34 -284 157
-318 309 -15 71 -13 664 4 725 28 108 96 195 191 249 92 51 130 55 490 53 315
-2 333 -4 385 -25z"/>
<path d="M8940 10865 l0 -405 400 0 400 0 1 375 c1 206 2 382 2 390 0 48 24
45 -403 45 l-400 0 0 -405z"/>
<path d="M8670 9390 l0 -270 135 0 135 0 0 135 0 135 270 0 270 0 0 -135 0
-135 -135 0 -135 0 0 -135 0 -135 135 0 135 0 0 -135 0 -135 130 0 c80 0 130
4 130 10 1 6 1 62 1 125 0 63 0 120 -1 125 0 6 -50 10 -130 10 l-130 0 0 135
0 135 130 0 130 0 0 -135 0 -135 270 0 270 0 0 135 0 135 -270 0 -271 0 2 135
1 135 134 0 134 0 0 135 0 136 -132 -3 -133 -3 -1 -130 0 -130 -132 -3 -131
-3 -3 133 -3 133 -402 3 -403 2 0 -270z"/>
<path d="M3012 5875 c-240 -52 -440 -248 -502 -491 -18 -70 -20 -111 -20 -428
0 -401 5 -440 72 -575 33 -67 60 -103 123 -166 88 -89 155 -131 272 -173 l78
-27 390 0 c374 0 393 1 457 22 229 75 380 223 456 448 l27 80 0 385 c0 429 0
427 -74 580 -51 105 -176 232 -281 284 -145 71 -180 76 -580 75 -261 0 -372
-4 -418 -14z m860 -294 c84 -42 149 -109 191 -199 l32 -67 0 -366 0 -365 -38
-76 c-44 -91 -102 -146 -197 -192 l-65 -31 -370 0 -370 0 -68 34 c-81 41 -158
120 -196 201 l-26 55 0 375 c0 371 0 376 23 425 51 110 136 189 244 226 48 17
85 19 413 16 l360 -2 67 -34z"/>
<path d="M3028 5350 c-1 -5 -2 -188 0 -405 l2 -395 400 0 400 0 0 405 0 405
-399 0 c-256 0 -401 -4 -403 -10z"/>
<path d="M5217 1818 c-53 -144 -95 -263 -93 -265 2 -2 91 -2 199 -1 l195 3
-37 100 c-20 55 -63 173 -96 263 -32 89 -61 162 -65 162 -3 0 -50 -118 -103
-262z"/>
</g>
</svg>
